<?xml version="1.0" encoding="UTF-8"?><svg id="a" xmlns="http://www.w3.org/2000/svg" viewBox="0 0 2034.87 1611.35"><defs><style>.b{stroke:#fff;stroke-miterlimit:10;}.c{fill:#fff;}.d{fill:#daff00;}</style></defs><path class="d" d="m1962.19,1308.37s-294.26-2.22-366.66.21c-72.96,2.45-329.29-2.2-443.73.25-110.98,2.38-407.01,5.02-434.38,5.03-27.37.02-44.8,7.87-63.04,35.93-18.23,28.05-72.34,100.53-102.68,138.83-24.39,30.79-84.02,100.54-136.55,118.51-52.54,17.97-85.26-25.07-86.45-62.16-1.19-37.09-1.31-53.84,1.11-104.08,2.31-47.85,2.28-88.53,2.28-88.53.03-17.26-16.37-43.06-39.73-43.04l-209.02,1.32c-32.7.02-42.05-14.33-42.06-45.44-.02-31.1,1.01-269.17,3.3-355.31,2.29-86.14-2.51-306.25,2.1-404.36,3.64-77.34-7.16-265.58-6.36-354.02.66-73.11,32.65-103.9,91.18-102.88,58.54,1.02,302.58-8.83,539.63.75,228.11,9.22,610.03-10.75,829.02-1.53,227.92,9.6,456.22-.26,456.22-.26,45.62-.03,76.31,33.23,76.34,79.97,0,0,4.64,144.27.18,323-4.46,178.73.21,373.08.27,466.56.09,149.57,1.35,321.81,1.35,321.81.02,37.39-27.98,71.79-72.36,69.43Z"/><path class="c" d="m243.83,1216.65c15.57,0,30.59,6.53,42.43,18.39,12.89,12.92,20.88,30.99,20.85,47.14,0,1.6-.03,40.83-2.37,87.64-2.45,49.03-2.29,64.55-1.15,99.81.45,13.96,8.07,28.43,18.96,36.02,10.06,7,22.43,8.13,36.79,3.35,32.67-10.89,79.79-51.38,126.05-108.32,30.32-37.31,84.22-107.82,101.59-133.86,21.54-32.31,45.47-45.49,82.6-45.49,29.57,0,326.54-2.47,434.49-4.67,58.87-1.2,153.04-.57,244.11.04,84.68.57,164.66,1.11,199.94-.03,72.13-2.32,356.04-.11,368.09-.01l1.04.03c13.65.73,25.45-3.28,34.17-11.55,8.71-8.27,13.71-20.27,13.71-32.91-.01-1.52-1.17-169.94-1.17-314.54,0-25.54-.36-58.93-.78-97.58-1.06-98.34-2.51-233.01.78-359.05,4.5-171.93.05-312.93,0-314.34v-.76c-.01-33.15-20.63-54.62-52.58-54.81-12.46.5-236.96,9.2-458.25-.02-108.64-4.53-261.29-1.97-408.93.51-150.42,2.52-305.97,5.13-421.18.52-170.39-6.82-345.8-3.79-450.61-1.97-42.06.73-72.44,1.25-89.23.96-22.39-.39-38.33,4.35-48.75,14.49-12.19,11.86-18.52,33.01-18.82,62.86-.37,37.15,1.42,92.19,3.31,150.45,2.44,75.15,4.96,152.86,2.83,196.48-2.67,54.83-2.25,151.28-1.87,236.38.28,62.98.54,122.47-.45,158.34-2.38,85.59-3.5,321.05-3.5,346.63,0,14.11,2.45,17.61,2.94,18.17.94,1.07,5.32,2.88,15.77,2.88l209.17-1.17Z"/><path class="b" d="m361.53,1522.94c-16.47,0-32.02-4.75-45.45-14.1-22.3-15.54-36.72-42.49-37.62-70.35-1.12-34.73-1.29-51.24,1.15-100.03,2.2-44,2.23-82,2.23-82.38,0-2.33-2.02-8.65-6.93-13.57-2.04-2.05-5.24-4.49-8.86-4.49l-201.87,1.13c-42.65,0-63.32-21.41-63.32-65.45,0-24.76,1.09-252.76,3.39-335.78.94-33.9.69-90.95.42-151.36-.37-82.69-.78-176.42,1.86-230.53,1.96-40.27-.44-114.33-2.76-185.96C1.92,213.34.19,159.76.55,122.95c.41-41.86,10.82-72.14,31.82-92.57C51.24,12.02,77.97,3,111.69,3.61c15.41.26,45.92-.26,84.54-.93,101.63-1.75,271.74-4.7,437.46,1.93,109.91,4.4,259.37,1.89,403.92-.53,143.13-2.4,291.13-4.88,397.29-.46,216.73,9.03,436.82.09,439.02,0l.94-.02c55.68,0,96.13,41.05,96.3,97.68.25,7.99,4.26,142.57,0,305.64-3.16,120.81-1.76,250.3-.74,344.85.4,37.43.75,69.76.75,94.66,0,139.39,1.12,301.78,1.13,303.4,0,24.69-9.95,48.2-27.31,64.67-17.25,16.37-40.59,24.69-65.88,23.51-13.16-.11-285.57-2.18-352.96,0-34.92,1.13-112.54.61-194.72.06-87.6-.59-178.17-1.2-234.37-.05-104.41,2.13-391.64,4.52-420.25,4.52-18.54,0-28.49,3.31-42.16,23.81-17.69,26.53-70.08,95.1-100.57,132.61-29.72,36.58-87.75,100.68-142.41,118.9-10.2,3.4-20.33,5.08-30.14,5.08Zm-95.62-330.05c15.03,0,29.53,6.3,40.94,17.74,12.44,12.47,20.15,29.9,20.12,45.5,0,1.54-.03,39.4-2.29,84.58-2.36,47.32-2.21,62.3-1.11,96.32.43,13.47,7.79,27.44,18.3,34.76,9.71,6.76,21.65,7.85,35.51,3.23,31.53-10.51,77-49.59,121.65-104.54,29.26-36.01,81.29-104.06,98.04-129.19,20.79-31.18,43.89-43.9,79.72-43.9,28.54,0,315.14-2.38,419.33-4.51,56.81-1.16,147.7-.55,235.59.04,81.73.55,158.91,1.07,192.96-.03,69.61-2.24,343.61-.1,355.25-.01l1.01.03c13.17.7,24.56-3.17,32.98-11.15,8.41-7.98,13.23-19.56,13.23-31.76-.01-1.47-1.13-164.01-1.13-303.56,0-24.65-.35-56.87-.75-94.17-1.02-94.9-2.42-224.88.76-346.52,4.34-165.93.05-302.01,0-303.37v-.73c-.01-31.99-19.91-52.71-50.74-52.9-12.03.48-228.69,8.88-442.26-.02-104.84-4.37-252.17-1.9-394.66.49-145.17,2.43-295.29,4.95-406.48.5-164.44-6.58-333.73-3.65-434.88-1.9-40.59.7-69.91,1.2-86.11.92-21.6-.38-36.99,4.19-47.05,13.99-11.77,11.45-17.88,31.86-18.16,60.67-.35,35.86,1.37,88.97,3.19,145.2,2.35,72.53,4.78,147.53,2.73,189.62-2.58,52.92-2.17,146-1.8,228.13.27,60.78.52,118.19-.44,152.82-2.29,82.6-3.38,309.84-3.38,334.53,0,13.62,2.36,17,2.84,17.53.91,1.03,5.14,2.78,15.22,2.78l201.87-1.13Z"/><path d="m1023.22,289.81c208.72,0,321.96,104.68,321.32,271.46-.64,121.01-53.83,232.44-159,295.66-83.12,51.53-164.91,68.5-285.49,68.5h-249.55l7.48-31.83c75.39-6.21,86.73-18.19,99.79-89.67l75.98-389.72c14.67-75.98,11.1-85.71-72.12-91.92l7.48-32.46h254.1Zm-151.17,500.22c-16.28,86.59,33.93,93.48,86.19,93.48,166.77,0,261.04-152.35,261.04-330.32,0-133.77-57.59-223.44-189.9-223.44-56.42,0-69.28,8.7-79.06,60.24l-78.28,400.04Z"/></svg>