<?xml version="1.0" encoding="UTF-8"?><svg id="a" xmlns="http://www.w3.org/2000/svg" viewBox="0 0 822.49 369.3"><path d="m87.58,369.3c-3.99,0-7.77-1.15-11.02-3.42-5.41-3.77-8.91-10.31-9.13-17.06-.27-8.42-.31-12.43.28-24.26.53-10.67.54-19.89.54-19.98,0-.57-.49-2.1-1.68-3.29-.5-.5-1.27-1.09-2.15-1.09l-48.97.27c-10.35,0-15.36-5.19-15.36-15.88,0-6.01.26-61.31.82-81.45.23-8.22.17-22.06.1-36.72-.09-20.06-.19-42.79.45-55.92.48-9.77-.11-27.73-.67-45.11C.35,51.63-.08,38.63.01,29.7.11,19.55,2.64,12.2,7.73,7.25,12.31,2.8,18.79.61,26.97.76c3.74.06,11.14-.06,20.51-.22,24.65-.43,65.91-1.14,106.12.47,26.66,1.07,62.92.46,97.98-.13,34.72-.58,414.62-1.18,440.37-.11,52.57,2.19,105.96.02,106.49,0h.23c13.51,0,23.32,9.95,23.36,23.69.06,1.94,1.03,34.58,0,74.14-.77,29.3-.43,60.72-.18,83.65.1,9.08.18,16.92.18,22.96,0,33.81.27,73.2.27,73.6,0,5.99-2.41,11.69-6.62,15.69-4.18,3.97-9.85,5.99-15.98,5.7-3.19-.03-69.27-.53-85.62,0-8.47.27-27.3.15-47.23.01-21.25-.14-387.22-.29-400.85-.01-25.33.52-95,1.1-101.94,1.1-4.5,0-6.91.8-10.23,5.77-4.29,6.44-17,23.07-24.39,32.17-7.21,8.87-21.29,24.42-34.54,28.84-2.47.82-4.93,1.23-7.31,1.23Zm-23.19-80.06c3.65,0,7.16,1.53,9.93,4.3,3.02,3.02,4.89,7.25,4.88,11.04,0,.37,0,9.56-.55,20.52-.57,11.48-.54,15.11-.27,23.37.11,3.27,1.89,6.66,4.44,8.43,2.35,1.64,5.25,1.9,8.61.78,7.65-2.55,18.68-12.03,29.51-25.36,7.1-8.74,19.72-25.24,23.78-31.34,5.04-7.56,10.65-10.65,19.34-10.65,6.92,0,76.44-.58,101.72-1.09,13.78-.28,379.83-.13,401.15,0,19.82.13,38.55.26,46.81,0,16.89-.54,83.35-.02,86.17,0h.24c3.2.18,5.96-.76,8-2.7,2.04-1.94,3.21-4.74,3.21-7.71,0-.36-.27-39.78-.27-73.63,0-5.98-.08-13.79-.18-22.84-.25-23.02-.59-54.55.18-84.06,1.05-40.25.01-73.26,0-73.59v-.18c0-7.76-4.83-12.79-12.31-12.83-2.92.12-55.47,2.15-107.28,0-25.43-1.06-405.17-.46-439.73.12-35.21.59-71.63,1.2-98.6.12-39.89-1.6-80.95-.89-105.49-.46-9.85.17-16.96.29-20.89.22-5.24-.09-8.97,1.02-11.41,3.39-2.85,2.78-4.34,7.73-4.41,14.72-.09,8.7.33,21.58.77,35.22.57,17.59,1.16,35.79.66,46-.63,12.84-.53,35.42-.44,55.34.07,14.74.13,28.67-.11,37.07-.56,20.04-.82,75.16-.82,81.15,0,3.3.57,4.12.69,4.25.22.25,1.25.67,3.69.67l48.97-.27Z"/></svg>